<svg width="50" height="50" viewBox="0 0 50 50" fill="none" xmlns="http://www.w3.org/2000/svg">
<!--skills-->
<g id="beer">
<path fill="#000000" fill-opacity="1" stroke-width="0.2" stroke-linejoin="round" d="M 43.5416,56.2083L 44.3333,55.4167L 31.6667,55.4167L 32.4583,56.2083L 43.5416,56.2083 Z M 38,37.6042C 39.7489,37.6042 40.7708,36.2278 40.7708,34.0417C 40.7708,31.8555 39.7489,30.4792 38,30.4792C 36.2511,30.4792 35.2292,31.8555 35.2292,34.0417C 35.2292,36.2278 36.2511,37.6042 38,37.6042 Z M 38,25.3333L 45.9166,25.3334C 45.9166,23.75 44.7291,22.1667 44.7291,22.1667L 38,22.1667L 31.2708,22.1667C 31.2708,22.1667 30.0833,23.75 30.0833,25.3334L 38,25.3333 Z M 38,20.5833L 47.5,20.5833C 49.0833,23.75 49.0833,28.5 49.0833,30.0833C 49.0833,42.75 45.9167,42.75 45.5208,49.0833L 45.9167,57C 45.9167,58.5833 44.3333,58.5833 44.3333,58.5833L 31.6667,58.5833C 31.6667,58.5833 30.0833,58.5833 30.0833,57L 30.4792,49.0833C 30.0833,42.75 26.9167,42.75 26.9167,30.0833C 26.9167,28.5 26.9167,23.75 28.5,20.5833L 38,20.5833 Z M 45.125,33.25L 43.5417,33.25C 43.1044,33.25 42.3542,33.6044 42.3542,34.0417C 42.3542,34.4789 43.1044,34.8333 43.5417,34.8333L 45.125,34.8333C 45.5622,34.8333 45.9167,34.4789 45.9167,34.0417C 45.9167,33.6044 45.5622,33.25 45.125,33.25 Z M 30.875,33.25C 30.4378,33.25 30.0833,33.6044 30.0833,34.0417C 30.0833,34.4789 30.4378,34.8333 30.875,34.8333L 32.4583,34.8333C 32.8956,34.8333 33.6458,34.4789 33.6458,34.0417C 33.6458,33.6044 32.8956,33.25 32.4583,33.25L 30.875,33.25 Z "/>
</g>
<g id="gym">
<path fill="#000000" fill-opacity="1" stroke-width="0.2" stroke-linejoin="round" d="M 43.5416,56.2083L 44.3333,55.4167L 31.6667,55.4167L 32.4583,56.2083L 43.5416,56.2083 Z M 38,37.6042C 39.7489,37.6042 40.7708,36.2278 40.7708,34.0417C 40.7708,31.8555 39.7489,30.4792 38,30.4792C 36.2511,30.4792 35.2292,31.8555 35.2292,34.0417C 35.2292,36.2278 36.2511,37.6042 38,37.6042 Z M 38,25.3333L 45.9166,25.3334C 45.9166,23.75 44.7291,22.1667 44.7291,22.1667L 38,22.1667L 31.2708,22.1667C 31.2708,22.1667 30.0833,23.75 30.0833,25.3334L 38,25.3333 Z M 38,20.5833L 47.5,20.5833C 49.0833,23.75 49.0833,28.5 49.0833,30.0833C 49.0833,42.75 45.9167,42.75 45.5208,49.0833L 45.9167,57C 45.9167,58.5833 44.3333,58.5833 44.3333,58.5833L 31.6667,58.5833C 31.6667,58.5833 30.0833,58.5833 30.0833,57L 30.4792,49.0833C 30.0833,42.75 26.9167,42.75 26.9167,30.0833C 26.9167,28.5 26.9167,23.75 28.5,20.5833L 38,20.5833 Z M 45.125,33.25L 43.5417,33.25C 43.1044,33.25 42.3542,33.6044 42.3542,34.0417C 42.3542,34.4789 43.1044,34.8333 43.5417,34.8333L 45.125,34.8333C 45.5622,34.8333 45.9167,34.4789 45.9167,34.0417C 45.9167,33.6044 45.5622,33.25 45.125,33.25 Z M 30.875,33.25C 30.4378,33.25 30.0833,33.6044 30.0833,34.0417C 30.0833,34.4789 30.4378,34.8333 30.875,34.8333L 32.4583,34.8333C 32.8956,34.8333 33.6458,34.4789 33.6458,34.0417C 33.6458,33.6044 32.8956,33.25 32.4583,33.25L 30.875,33.25 Z "/>
</g>
<g id="trident">
<path d="M507.008,241.312c-4.079-4.079-9.966-5.764-15.583-4.471l-118.209,23.64c-5.914,1.374-10.632,5.845-12.301,11.686
			c-1.682,5.838-0.05,12.132,4.244,16.427l11.822,11.822l-82.744,82.744c-6.529,6.529-17.113,6.529-23.641,0l-35.462-35.462
			l165.489-165.49l11.822,11.822c4.294,4.294,10.59,5.926,16.426,4.244c5.841-1.671,10.312-6.387,11.686-12.301l23.639-118.209
			c1.293-5.618-0.392-11.505-4.471-15.583c-4.079-4.079-9.965-5.764-15.583-4.471L325.936,71.349
			c-5.914,1.374-10.632,5.845-12.301,11.686c-1.682,5.838-0.05,12.132,4.244,16.427l11.822,11.822L164.212,276.773l-35.462-35.462
			c-6.528-6.529-6.528-17.113,0-23.641l82.744-82.744l11.822,11.822c4.294,4.294,10.59,5.926,16.426,4.244
			c5.841-1.669,10.312-6.387,11.686-12.301l23.639-118.209c1.293-5.618-0.392-11.505-4.471-15.583s-9.966-5.764-15.584-4.471
			l-118.206,23.64c-5.914,1.374-10.632,5.845-12.301,11.686c-1.682,5.838-0.05,12.132,4.244,16.426l11.822,11.822l-82.744,82.744
			c-45.698,45.698-45.698,119.79,0,165.49l35.462,35.462L4.978,436.192c-6.516,6.53-6.511,17.105,0.012,23.629l47.282,47.283
			c6.533,6.533,17.127,6.527,23.653-0.012l88.285-88.47l35.462,35.462c45.698,45.698,119.791,45.698,165.488,0l82.744-82.744
			l11.822,11.822c4.294,4.294,10.59,5.926,16.426,4.244c5.841-1.669,10.312-6.387,11.686-12.301l23.639-118.209
			C512.772,251.278,511.087,245.391,507.008,241.312z M461.285,337.43l-13.376-13.375l-23.641,23.641l-15.761,15.761l-66.984,66.984
			c-32.641,32.643-85.565,32.641-118.206,0l-35.462-35.462l-23.643-23.64l-23.641,23.641l-76.465,76.675l-23.641-23.641
			l76.465-76.675l23.641-23.641l-23.641-23.641l-35.462-35.462c-32.641-32.641-32.641-85.565,0-118.206l66.984-66.984l15.761-15.761
			l23.641-23.641l-13.382-13.383l63.002-12.595l-12.601,62.994l-13.375-13.375l-23.641,23.641l-15.761,15.761l-66.984,66.984
			c-19.586,19.586-19.586,51.339,0,70.924l35.462,35.462l23.641,23.641l23.641-23.641l141.847-141.847l23.641-23.641l23.641-23.641
			l-13.382-13.384l63.002-12.594l-12.601,62.994l-13.375-13.375l-23.641,23.641l-23.641,23.641L211.495,324.055l-23.641,23.641
			l23.641,23.641l35.462,35.462c19.586,19.584,51.339,19.584,70.924,0l66.984-66.984l15.761-15.761l23.641-23.641l-13.382-13.384
			l63.002-12.595L461.285,337.43z"/>
</g>

<!--social-->
<g id="telegram">
<path fill-rule="evenodd" clip-rule="evenodd" d="M23.1117 4.49449C23.4296 2.94472 21.9074 1.65683 20.4317 2.227L2.3425 9.21601C0.694517 9.85273 0.621087 12.1572 2.22518 12.8975L6.1645 14.7157L8.03849 21.2746C8.13583 21.6153 8.40618 21.8791 8.74917 21.968C9.09216 22.0568 9.45658 21.9576 9.70712 21.707L12.5938 18.8203L16.6375 21.8531C17.8113 22.7334 19.5019 22.0922 19.7967 20.6549L23.1117 4.49449ZM3.0633 11.0816L21.1525 4.0926L17.8375 20.2531L13.1 16.6999C12.7019 16.4013 12.1448 16.4409 11.7929 16.7928L10.5565 18.0292L10.928 15.9861L18.2071 8.70703C18.5614 8.35278 18.5988 7.79106 18.2947 7.39293C17.9906 6.99479 17.4389 6.88312 17.0039 7.13168L6.95124 12.876L3.0633 11.0816ZM8.17695 14.4791L8.78333 16.6015L9.01614 15.321C9.05253 15.1209 9.14908 14.9366 9.29291 14.7928L11.5128 12.573L8.17695 14.4791Z" fill="#0F0F0F"/>
</g>
</svg>
