<svg width="50"
     height="50"
     viewBox="0 0 50 50"
     fill="white"
     xmlns="http://www.w3.org/2000/svg">
	<!--skills-->
	<g id="beer">
		<path fill="white"
		      fill-opacity="1"
		      stroke-width="0.2"
		      stroke-linejoin="round"
		      d="M 43.5416,56.2083L 44.3333,55.4167L 31.6667,55.4167L 32.4583,56.2083L 43.5416,56.2083 Z M 38,37.6042C 39.7489,37.6042 40.7708,36.2278 40.7708,34.0417C 40.7708,31.8555 39.7489,30.4792 38,30.4792C 36.2511,30.4792 35.2292,31.8555 35.2292,34.0417C 35.2292,36.2278 36.2511,37.6042 38,37.6042 Z M 38,25.3333L 45.9166,25.3334C 45.9166,23.75 44.7291,22.1667 44.7291,22.1667L 38,22.1667L 31.2708,22.1667C 31.2708,22.1667 30.0833,23.75 30.0833,25.3334L 38,25.3333 Z M 38,20.5833L 47.5,20.5833C 49.0833,23.75 49.0833,28.5 49.0833,30.0833C 49.0833,42.75 45.9167,42.75 45.5208,49.0833L 45.9167,57C 45.9167,58.5833 44.3333,58.5833 44.3333,58.5833L 31.6667,58.5833C 31.6667,58.5833 30.0833,58.5833 30.0833,57L 30.4792,49.0833C 30.0833,42.75 26.9167,42.75 26.9167,30.0833C 26.9167,28.5 26.9167,23.75 28.5,20.5833L 38,20.5833 Z M 45.125,33.25L 43.5417,33.25C 43.1044,33.25 42.3542,33.6044 42.3542,34.0417C 42.3542,34.4789 43.1044,34.8333 43.5417,34.8333L 45.125,34.8333C 45.5622,34.8333 45.9167,34.4789 45.9167,34.0417C 45.9167,33.6044 45.5622,33.25 45.125,33.25 Z M 30.875,33.25C 30.4378,33.25 30.0833,33.6044 30.0833,34.0417C 30.0833,34.4789 30.4378,34.8333 30.875,34.8333L 32.4583,34.8333C 32.8956,34.8333 33.6458,34.4789 33.6458,34.0417C 33.6458,33.6044 32.8956,33.25 32.4583,33.25L 30.875,33.25 Z " />
	</g>
	<g id="gym">
		<path d="M66.421,29.17h-1.607v-4.652c0-2.343-1.907-4.25-4.25-4.25h-2.861v-1.557c0-2.343-1.907-4.25-4.25-4.25h-3.155
	c-2.343,0-4.25,1.907-4.25,4.25v10.442H24.48V18.711c0-2.343-1.907-4.25-4.25-4.25h-3.155c-2.343,0-4.25,1.907-4.25,4.25v2.894
	h-2.86c-2.343,0-4.25,1.907-4.25,4.25v3.883H4.107C1.843,29.737,0,31.644,0,33.987v3.122c0,2.343,1.843,4.25,4.107,4.25h1.607v4.652
	c0,2.343,1.907,4.25,4.25,4.25h2.86v1.557c0,2.343,1.907,4.25,4.25,4.25h3.155c2.343,0,4.25-1.907,4.25-4.25v-11.01h21.568v11.01
	c0,2.343,1.907,4.25,4.25,4.25h3.155c2.343,0,4.25-1.907,4.25-4.25v-2.894h2.861c2.343,0,4.25-1.907,4.25-4.25v-3.882h1.607
	c2.265,0,4.107-1.907,4.107-4.25V33.42C70.529,31.077,68.686,29.17,66.421,29.17z M4.107,38.859c-0.886,0-1.607-0.785-1.607-1.75
	v-3.122c0-0.965,0.721-1.75,1.607-1.75h1.607v6.622H4.107z M9.965,47.761c-0.965,0-1.75-0.785-1.75-1.75V25.854
	c0-0.965,0.785-1.75,1.75-1.75h2.86v23.656H9.965z M21.98,51.818c0,0.965-0.785,1.75-1.75,1.75h-3.155
	c-0.965,0-1.75-0.785-1.75-1.75V18.711c0-0.965,0.785-1.75,1.75-1.75h3.155c0.965,0,1.75,0.785,1.75,1.75V51.818z M24.48,38.308
	v-6.655h21.568v6.655H24.48z M55.203,51.818c0,0.965-0.785,1.75-1.75,1.75h-3.155c-0.965,0-1.75-0.785-1.75-1.75V18.711
	c0-0.965,0.785-1.75,1.75-1.75h3.155c0.965,0,1.75,0.785,1.75,1.75V51.818z M62.314,44.674c0,0.965-0.785,1.75-1.75,1.75h-2.861
	V22.768h2.861c0.965,0,1.75,0.785,1.75,1.75V44.674z M68.029,36.542c0,0.965-0.721,1.75-1.607,1.75h-1.607V31.67h1.607
	c0.886,0,1.607,0.785,1.607,1.75V36.542z" />
	</g>
	<g id="trident">
		<path d="M507.008,241.312c-4.079-4.079-9.966-5.764-15.583-4.471l-118.209,23.64c-5.914,1.374-10.632,5.845-12.301,11.686
			c-1.682,5.838-0.05,12.132,4.244,16.427l11.822,11.822l-82.744,82.744c-6.529,6.529-17.113,6.529-23.641,0l-35.462-35.462
			l165.489-165.49l11.822,11.822c4.294,4.294,10.59,5.926,16.426,4.244c5.841-1.671,10.312-6.387,11.686-12.301l23.639-118.209
			c1.293-5.618-0.392-11.505-4.471-15.583c-4.079-4.079-9.965-5.764-15.583-4.471L325.936,71.349
			c-5.914,1.374-10.632,5.845-12.301,11.686c-1.682,5.838-0.05,12.132,4.244,16.427l11.822,11.822L164.212,276.773l-35.462-35.462
			c-6.528-6.529-6.528-17.113,0-23.641l82.744-82.744l11.822,11.822c4.294,4.294,10.59,5.926,16.426,4.244
			c5.841-1.669,10.312-6.387,11.686-12.301l23.639-118.209c1.293-5.618-0.392-11.505-4.471-15.583s-9.966-5.764-15.584-4.471
			l-118.206,23.64c-5.914,1.374-10.632,5.845-12.301,11.686c-1.682,5.838-0.05,12.132,4.244,16.426l11.822,11.822l-82.744,82.744
			c-45.698,45.698-45.698,119.79,0,165.49l35.462,35.462L4.978,436.192c-6.516,6.53-6.511,17.105,0.012,23.629l47.282,47.283
			c6.533,6.533,17.127,6.527,23.653-0.012l88.285-88.47l35.462,35.462c45.698,45.698,119.791,45.698,165.488,0l82.744-82.744
			l11.822,11.822c4.294,4.294,10.59,5.926,16.426,4.244c5.841-1.669,10.312-6.387,11.686-12.301l23.639-118.209
			C512.772,251.278,511.087,245.391,507.008,241.312z M461.285,337.43l-13.376-13.375l-23.641,23.641l-15.761,15.761l-66.984,66.984
			c-32.641,32.643-85.565,32.641-118.206,0l-35.462-35.462l-23.643-23.64l-23.641,23.641l-76.465,76.675l-23.641-23.641
			l76.465-76.675l23.641-23.641l-23.641-23.641l-35.462-35.462c-32.641-32.641-32.641-85.565,0-118.206l66.984-66.984l15.761-15.761
			l23.641-23.641l-13.382-13.383l63.002-12.595l-12.601,62.994l-13.375-13.375l-23.641,23.641l-15.761,15.761l-66.984,66.984
			c-19.586,19.586-19.586,51.339,0,70.924l35.462,35.462l23.641,23.641l23.641-23.641l141.847-141.847l23.641-23.641l23.641-23.641
			l-13.382-13.384l63.002-12.594l-12.601,62.994l-13.375-13.375l-23.641,23.641l-23.641,23.641L211.495,324.055l-23.641,23.641
			l23.641,23.641l35.462,35.462c19.586,19.584,51.339,19.584,70.924,0l66.984-66.984l15.761-15.761l23.641-23.641l-13.382-13.384
			l63.002-12.595L461.285,337.43z" />
	</g>

	<!--social-->
	<g id="telegram">
		<path fill-rule="evenodd" clip-rule="evenodd" d="M23.1117 4.49449C23.4296 2.94472 21.9074 1.65683 20.4317 2.227L2.3425 9.21601C0.694517 9.85273 0.621087 12.1572 2.22518 12.8975L6.1645 14.7157L8.03849 21.2746C8.13583 21.6153 8.40618 21.8791 8.74917 21.968C9.09216 22.0568 9.45658 21.9576 9.70712 21.707L12.5938 18.8203L16.6375 21.8531C17.8113 22.7334 19.5019 22.0922 19.7967 20.6549L23.1117 4.49449ZM3.0633 11.0816L21.1525 4.0926L17.8375 20.2531L13.1 16.6999C12.7019 16.4013 12.1448 16.4409 11.7929 16.7928L10.5565 18.0292L10.928 15.9861L18.2071 8.70703C18.5614 8.35278 18.5988 7.79106 18.2947 7.39293C17.9906 6.99479 17.4389 6.88312 17.0039 7.13168L6.95124 12.876L3.0633 11.0816ZM8.17695 14.4791L8.78333 16.6015L9.01614 15.321C9.05253 15.1209 9.14908 14.9366 9.29291 14.7928L11.5128 12.573L8.17695 14.4791Z" fill="white" />
	</g>

	<g id="axe">
	<path d="M16.466,474.754c-3.402,4.839-4.724,10.753-3.701,16.617c1.023,5.866,4.269,10.981,9.141,14.406    c10.054,7.067,23.985,4.638,31.054-5.418l81.419-113.879l-37.115-24.743L16.466,474.754z" />
	</g>

	<!--logo-->
	<g id="logo">
		<path d="M374.443,82.204c-3.813-3.459-9.629-3.459-13.439,0c-23.098,20.96-37.446,62.467-37.446,108.324v33.449l-65.459,22.979
	V138.788h12.118c5.522,0,10-4.477,10-10c0-53.493-16.667-101.848-43.496-126.193c-3.813-3.46-9.627-3.46-13.439,0
	c-26.829,24.346-43.496,72.7-43.496,126.193c0,5.523,4.478,10,10,10h12.118v108.167l-65.459-22.979v-33.449
	c0-45.856-14.349-87.364-37.446-108.324c-3.812-3.459-9.628-3.459-13.439,0c-23.099,20.96-37.447,62.467-37.447,108.324v38.317
	c0,5.523,4.478,10,10,10s10-4.477,10-10v-28.317h12.139v30.537c0,34.301,11.941,67.844,33.625,94.452
	c16.204,19.884,37.284,35.256,60.832,44.672c0.289,0.146,0.586,0.282,0.893,0.402c1.106,0.433,2.225,0.827,3.341,1.233
	c0.053,0.019,0.106,0.039,0.159,0.059c1.646,0.597,3.302,1.162,4.965,1.699c0.235,0.076,0.47,0.155,0.705,0.23
	c1.502,0.477,3.012,0.926,4.527,1.354c0.245,0.07,0.487,0.151,0.733,0.219V450c0,5.523,4.478,10,10,10s10-4.477,10-10v-70.528
	c3.446,0.461,6.911,0.82,10.396,1.041c0.215,0.014,0.43,0.021,0.643,0.021c5.233,0,9.634-4.071,9.97-9.367
	c0.351-5.512-3.835-10.264-9.347-10.613c-6.558-0.416-13.045-1.332-19.421-2.725c-0.033-0.008-0.065-0.019-0.098-0.026
	c-0.498-0.109-0.992-0.229-1.488-0.344c-0.782-0.181-1.562-0.37-2.339-0.565c-0.817-0.206-1.632-0.418-2.442-0.64
	c-0.82-0.224-1.638-0.455-2.454-0.695c-0.686-0.202-1.37-0.406-2.051-0.619c-0.94-0.294-1.877-0.6-2.811-0.915
	c-0.798-0.27-1.591-0.549-2.381-0.834c-0.269-0.097-0.537-0.198-0.805-0.297c-50.229-18.505-85.153-67.24-85.153-121.829v-40.537
	c0-5.523-4.478-10-10-10H68.366c1.587-30.941,10.461-59.084,23.911-76.23c14.886,18.977,24.166,51.427,24.166,86.23v40.537
	c0,26.813,9.558,52.855,26.912,73.331c17.146,20.229,40.871,33.898,66.804,38.488c2.912,0.515,5.903-0.284,8.169-2.185
	s3.574-4.706,3.574-7.663V128.788c0-5.523-4.478-10-10-10H200c1.671-38.538,12.899-73.684,30-94.313
	c17.101,20.629,28.329,55.775,30,94.313h-11.902c-5.522,0-10,4.477-10,10v204.248c0,2.957,1.309,5.762,3.574,7.663
	c2.266,1.9,5.255,2.699,8.169,2.185c25.933-4.59,49.657-18.258,66.804-38.488c17.354-20.476,26.912-46.518,26.912-73.331v-40.537
	c0-34.803,9.28-67.253,24.166-86.23c13.45,17.146,22.324,45.289,23.911,76.23h-21.883c-5.522,0-10,4.477-10,10v40.537
	c0,60.48-42.865,113.781-101.924,126.738c-4.588,1.006-7.857,5.07-7.857,9.768V450c0,5.523,4.478,10,10,10s10-4.477,10-10v-74.615
	c29.698-8.256,56.508-25.758,76.156-49.869c21.684-26.607,33.625-60.151,33.625-94.452v-30.537h12.139v28.317
	c0,5.523,4.478,10,10,10s10-4.477,10-10v-38.317C411.89,144.671,397.541,103.164,374.443,82.204z M137.572,245.57l64.33,22.583
	v52.174C167.932,309.693,143.023,280.629,137.572,245.57z M258.098,320.327v-52.174l64.33-22.583
	C316.977,280.629,292.068,309.693,258.098,320.327z" />
	</g>
</svg>